<svg xmlns="http://www.w3.org/2000/svg" width="24" height="24" viewBox="0 0 24 24" fill="none">
  <g clip-path="url(#clip0_75_1194)">
    <path d="M0.00292969 4.5C0.00292969 3.70435 0.319 2.94129 0.881609 2.37868C1.44422 1.81607 2.20728 1.5 3.00293 1.5H21.0029C21.7986 1.5 22.5616 1.81607 23.1243 2.37868C23.6869 2.94129 24.0029 3.70435 24.0029 4.5V19.5C24.0029 20.2956 23.6869 21.0587 23.1243 21.6213C22.5616 22.1839 21.7986 22.5 21.0029 22.5H3.00293C2.20728 22.5 1.44422 22.1839 0.881609 21.6213C0.319 21.0587 0.00292969 20.2956 0.00292969 19.5V4.5ZM1.50293 18V19.5C1.50293 19.8978 1.66097 20.2794 1.94227 20.5607C2.22357 20.842 2.6051 21 3.00293 21H21.0029C21.4008 21 21.7823 20.842 22.0636 20.5607C22.3449 20.2794 22.5029 19.8978 22.5029 19.5V14.25L16.8374 11.3295C16.6968 11.259 16.5375 11.2346 16.3822 11.2596C16.2269 11.2847 16.0833 11.3579 15.9719 11.469L10.4069 17.034L6.41693 14.376C6.27287 14.2801 6.10007 14.237 5.92784 14.2539C5.7556 14.2709 5.59453 14.3468 5.47193 14.469L1.50293 18ZM9.00293 8.25C9.00293 7.65326 8.76588 7.08097 8.34392 6.65901C7.92196 6.23705 7.34967 6 6.75293 6C6.15619 6 5.5839 6.23705 5.16194 6.65901C4.73998 7.08097 4.50293 7.65326 4.50293 8.25C4.50293 8.84674 4.73998 9.41903 5.16194 9.84099C5.5839 10.2629 6.15619 10.5 6.75293 10.5C7.34967 10.5 7.92196 10.2629 8.34392 9.84099C8.76588 9.41903 9.00293 8.84674 9.00293 8.25Z" fill="white"/>
  </g>
  <defs>
    <clipPath id="clip0_75_1194">
      <rect width="24" height="24" fill="white"/>
    </clipPath>
  </defs>
</svg>