<?xml version="1.0" encoding="utf-8"?>
<!-- Generator: Adobe Illustrator 24.3.0, SVG Export Plug-In . SVG Version: 6.00 Build 0)  -->
<svg version="1.1" id="Layer_1" xmlns="http://www.w3.org/2000/svg" xmlns:xlink="http://www.w3.org/1999/xlink" x="0px" y="0px"
	 viewBox="0 0 512 512" style="enable-background:new 0 0 512 512;" xml:space="preserve">
<style type="text/css">
	.st0{fill:#FFFFFF;}
</style>
<rect width="512" height="512"/>
<g>
	<path class="st0" d="M256.26,466.26c-97.52,0.98-178.5-77.74-179.94-175.43c-1.46-99.24,78.27-181.57,180.01-181.35
		c101.93,0.22,180.94,82.89,179.28,181.65C433.98,388.9,353.04,466.96,256.26,466.26z M368.02,167.19
		c-30.48-28.97-73.18-43.24-105.1-43.3c0,5.53,0,11.08,0,16.62c0,5.57-2.59,8.94-6.88,8.97c-4.35,0.03-6.99-3.29-7.01-8.85
		c-0.02-5.55,0-11.09,0-17.15c-40.44,2.24-75.05,16.6-105.41,43.64c4.43,4.15,8.57,7.91,12.56,11.82c3.63,3.56,4.08,8.09,1.29,10.89
		c-3.11,3.13-7.55,2.86-11.33-1.01c-3.89-3.99-7.54-8.22-11.62-12.71c-27.49,30.65-41.95,65-44.1,105.09
		c6.65,0,12.56-0.23,18.44,0.12c2.12,0.13,4.96,1.11,6.02,2.68c1.18,1.74,1.63,5.09,0.69,6.83c-1.04,1.92-3.93,3.75-6.16,3.94
		c-6.13,0.53-12.34,0.18-18.99,0.18c2.24,40.18,16.72,74.46,43.99,104.76c4.12-4.4,7.86-8.54,11.76-12.52
		c3.88-3.96,8.14-4.31,11.24-1.14c2.83,2.9,2.52,7.35-1.14,10.95c-3.98,3.91-8.22,7.57-12.24,11.24
		c17.62,22.34,77.53,47.02,105.01,43.67c0-5.51-0.01-11.07,0-16.63c0.01-5.51,2.34-8.52,6.68-8.64c4.59-0.13,7.18,2.94,7.2,8.57
		c0.02,5.69,0,11.38,0,17.33c40.36-2.33,74.97-16.57,105.36-43.67c-4.71-4.44-9.44-8.27-13.29-12.83c-1.57-1.87-2.11-5.56-1.47-7.99
		c0.46-1.75,3.63-3.82,5.63-3.86c2.27-0.04,4.95,1.61,6.82,3.24c4.16,3.63,7.94,7.7,12.05,11.78
		c26.81-29.98,41.39-64.18,43.48-104.25c-6.15,0-11.59,0.02-17.04-0.01c-5.69-0.03-8.98-2.57-9.01-6.88
		c-0.03-4.5,3.01-6.88,8.87-6.9c5.58-0.02,11.16,0,17.29,0c-2.36-40.16-16.67-74.58-43.75-104.54c-4.39,4.48-8.23,8.54-12.23,12.44
		c-3.66,3.57-8.04,3.83-11.05,0.87c-2.83-2.78-2.43-7.39,1.13-10.93C359.65,175.06,363.76,171.26,368.02,167.19z"/>
	<path class="st0" d="M262.91,233.26c0,9.27,0.08,18.54-0.05,27.82c-0.03,2.41,0.76,3.55,2.99,4.6
		c12.32,5.8,17.54,17.65,13.19,30.41c-1.07,3.13-0.21,4.78,1.84,6.8c17.12,16.91,34.18,33.88,51.21,50.88
		c1.43,1.43,2.97,3.06,3.63,4.89c1.09,3.03,0.13,5.93-2.67,7.73c-3.08,1.98-6.3,1.75-8.95-0.83c-7.41-7.2-14.73-14.49-22.07-21.77
		c-10.48-10.39-20.99-20.76-31.37-31.25c-2.01-2.03-3.63-2.53-6.51-1.56c-12.73,4.32-26.11-1.66-30.98-13.5
		c-5.1-12.4,0.23-25.94,12.84-31.79c2.53-1.17,3.07-2.55,3.06-5c-0.07-18.25-0.04-36.5-0.03-54.75c0-5.82,2.35-8.61,7.11-8.52
		c4.5,0.09,6.74,2.85,6.75,8.47C262.93,215.01,262.91,224.14,262.91,233.26z M256.31,277.46c-5.64-0.25-10.87,4.63-11.05,10.32
		c-0.17,5.42,4.54,10.4,10.15,10.74c5.69,0.34,11.02-4.42,11.26-10.06C266.91,282.79,262.13,277.72,256.31,277.46z"/>
	<path class="st0" d="M122.34,117.62c7.72-5.1,14.1-9.6,20.77-13.65c26-15.79,54.13-25.71,84.37-29.47
		c3.73-0.46,5.17-1.58,4.78-5.41c-0.37-3.64-0.09-7.35-0.14-11.03c0-0.41-0.23-0.82-0.52-1.79c-8.72,0-17.56,0-26.4,0
		c-9.2,0-10.75-1.56-10.75-10.84c0-9.57-0.03-19.13,0.02-28.7c0.03-6.09,2.17-8.22,8.27-8.22c35.55-0.02,71.11-0.02,106.66,0.01
		c5.79,0,8.03,2.25,8.05,8.02c0.04,10.45,0.04,20.9,0,31.35c-0.02,5.92-2.35,8.29-8.32,8.36c-8.15,0.09-16.3,0.02-24.44,0.04
		c-1.45,0-2.9,0.13-4.91,0.22c0,5.32-0.13,10.43,0.14,15.51c0.04,0.78,1.91,1.96,3.04,2.11c23.24,3,45.64,9.03,66.52,19.58
		c11.83,5.98,22.92,13.41,34.33,20.22c1.51,0.9,2.88,2.02,3.97,2.79c4.58-2.95,8.59-6.33,13.21-8.34
		c11.96-5.21,25.84-0.92,33.03,9.6c7.48,10.94,6.42,25.73-2.98,34.85c-2.99,2.9-2.57,4.57-0.37,7.58
		c30.78,42.03,45.93,89.24,41.49,140.94c-7.82,90.97-55.68,153.72-140.5,188.69c-85.65,28.01-162.18,12.79-228.02-48.96
		c-33.66-31.57-53.82-71.14-61.35-116.42c-9.88-59.37,2.83-113.97,38.17-163.07c2.75-3.82,3.39-5.89-0.37-9.73
		c-10.34-10.57-9.38-27.63,1.44-38.13c10.35-10.05,27.38-10.1,38.26,0.01C120.96,114.78,121.58,116.42,122.34,117.62z M458.68,288.1
		C458.54,175.9,367.75,85.95,254.19,86.5C142.31,87.05,50.87,179.54,53.16,292.55c2.18,107.5,93.37,200.72,210.13,196.85
		C369.77,485.86,459.07,397.72,458.68,288.1z M208.75,42.02c31.71,0,63.08,0,94.41,0c0-6.83,0-13.24,0-19.88
		c-31.57,0-62.84,0-94.41,0C208.75,28.79,208.75,35.2,208.75,42.02z M111.85,125.96c-3.3-4.22-7.72-6.79-13.52-5.69
		c-5.88,1.11-9.9,4.75-11.11,10.6c-1.19,5.78,0.99,10.54,5.42,13.8C99.12,138.36,105.39,132.25,111.85,125.96z M400.34,125.65
		c6.34,6.51,12.45,12.79,18.7,19.21c4.5-3.54,6.87-8.09,5.65-13.81c-1.28-6.06-5.34-9.78-11.48-10.8
		C407.53,119.31,403.27,121.91,400.34,125.65z M265.54,72.6c0-5.43,0-10.65,0-16.03c-6.5,0-12.74,0-19.13,0c0,5.53,0,10.75,0,16.03
		C252.8,72.6,258.95,72.6,265.54,72.6z"/>
</g>
</svg>
